<?xml version="1.0" encoding="UTF-8" standalone="no"?>
<!DOCTYPE svg PUBLIC "-//W3C//DTD SVG 1.1//EN" "http://www.w3.org/Graphics/SVG/1.1/DTD/svg11.dtd">
<svg version="1.1" xmlns="http://www.w3.org/2000/svg" xmlns:xlink="http://www.w3.org/1999/xlink"
     preserveAspectRatio="xMidYMid meet" viewBox="0 0 80 80" width="80" height="80">
    <defs>
        <path d="M77.52 32.4L69.45 48.67L56.15 44.99L44.51 44.99L55.32 13.99L77.52 32.4Z" id="bz8XGGixJ"/>
        <linearGradient id="gradientcyNKNGOts" gradientUnits="userSpaceOnUse" x1="29.14" y1="31.33" x2="74.37"
                        y2="31.33">
            <stop style="stop-color: #21d789;stop-opacity: 1" offset="0%"/>
            <stop style="stop-color: #07c3f2;stop-opacity: 1" offset="100%"/>
        </linearGradient>
        <path d="M28.6 48.67L28.24 56.5L17.32 61.14L2 62.8L6.63 13.64L34.54 2L51.64 13.28L32.87 25.99L28.6 48.67Z"
              id="binCGPO59"/>
        <linearGradient id="gradientbsLA2yUge" gradientUnits="userSpaceOnUse" x1="-24.65" y1="66.14" x2="68.48"
                        y2="-2.61">
            <stop style="stop-color: #fcf84a;stop-opacity: 1" offset="1%"/>
            <stop style="stop-color: #a7eb62;stop-opacity: 1" offset="11%"/>
            <stop style="stop-color: #5fe077;stop-opacity: 1" offset="21%"/>
            <stop style="stop-color: #32da84;stop-opacity: 1" offset="27%"/>
            <stop style="stop-color: #21d789;stop-opacity: 1" offset="31%"/>
            <stop style="stop-color: #21d789;stop-opacity: 1" offset="57.99999999999999%"/>
            <stop style="stop-color: #21d789;stop-opacity: 1" offset="60%"/>
            <stop style="stop-color: #20d68c;stop-opacity: 1" offset="69%"/>
            <stop style="stop-color: #1ed497;stop-opacity: 1" offset="76%"/>
            <stop style="stop-color: #19d1a9;stop-opacity: 1" offset="83%"/>
            <stop style="stop-color: #13ccc2;stop-opacity: 1" offset="90%"/>
            <stop style="stop-color: #0bc6e1;stop-opacity: 1" offset="97%"/>
            <stop style="stop-color: #07c3f2;stop-opacity: 1" offset="100%"/>
        </linearGradient>
        <path d="M35.01 69.8L28.01 78L2 62.8L23.37 30.85L32.87 25.99L35.01 69.8Z" id="g8P1DyBc3V"/>
        <linearGradient id="gradientdEsN0qZ9W" gradientUnits="userSpaceOnUse" x1="12.13" y1="86.3" x2="27.67"
                        y2="37.56">
            <stop style="stop-color: #21d789;stop-opacity: 1" offset="0%"/>
            <stop style="stop-color: #24d788;stop-opacity: 1" offset="16%"/>
            <stop style="stop-color: #2fd886;stop-opacity: 1" offset="30%"/>
            <stop style="stop-color: #41da82;stop-opacity: 1" offset="44%"/>
            <stop style="stop-color: #5adc7d;stop-opacity: 1" offset="56.00000000000001%"/>
            <stop style="stop-color: #7ae077;stop-opacity: 1" offset="69%"/>
            <stop style="stop-color: #a1e36e;stop-opacity: 1" offset="81%"/>
            <stop style="stop-color: #cfe865;stop-opacity: 1" offset="93%"/>
            <stop style="stop-color: #f1eb5e;stop-opacity: 1" offset="100%"/>
        </linearGradient>
        <path d="M35.25 22.78L58.52 2L61.61 22.78L35.25 22.78Z" id="iaYuEO9Lm"/>
        <linearGradient id="gradientc23ijr5860" gradientUnits="userSpaceOnUse" x1="32.7" y1="43.92" x2="66.5"
                        y2="-1.52">
            <stop style="stop-color: #21d789;stop-opacity: 1" offset="0%"/>
            <stop style="stop-color: #24d788;stop-opacity: 1" offset="6%"/>
            <stop style="stop-color: #2fd886;stop-opacity: 1" offset="11%"/>
            <stop style="stop-color: #41da82;stop-opacity: 1" offset="16%"/>
            <stop style="stop-color: #5add7d;stop-opacity: 1" offset="21%"/>
            <stop style="stop-color: #79e077;stop-opacity: 1" offset="25%"/>
            <stop style="stop-color: #7ce076;stop-opacity: 1" offset="26%"/>
            <stop style="stop-color: #8ce173;stop-opacity: 1" offset="50%"/>
            <stop style="stop-color: #b2e56b;stop-opacity: 1" offset="92%"/>
        </linearGradient>
        <path d="M54.84 77.88L23.97 69.21L32.87 25.99L36.44 22.78L55.32 21L53.54 39.88L68.5 34.06L78 69.92L54.84 77.88Z"
              id="a12lRJZVSX"/>
        <linearGradient id="gradientc2OeOJbmK" gradientUnits="userSpaceOnUse" x1="84.39" y1="49.71" x2="16.28"
                        y2="49.08">
            <stop style="stop-color: #fcf84a;stop-opacity: 1" offset="39%"/>
            <stop style="stop-color: #ecf451;stop-opacity: 1" offset="54%"/>
            <stop style="stop-color: #c2e964;stop-opacity: 1" offset="83%"/>
            <stop style="stop-color: #b2e56b;stop-opacity: 1" offset="92%"/>
        </linearGradient>
        <path d="M63.75 16.25C63.75 16.25 63.75 16.25 63.75 16.25C63.75 44.75 63.75 60.58 63.75 63.75C63.75 63.75 63.75 63.75 63.75 63.75C35.25 63.75 19.42 63.75 16.25 63.75C16.25 63.75 16.25 63.75 16.25 63.75C16.25 35.25 16.25 19.42 16.25 16.25C16.25 16.25 16.25 16.25 16.25 16.25C44.75 16.25 60.58 16.25 63.75 16.25Z"
              id="b2WFFjBVC"/>
        <path d="M38.57 54.84C38.57 54.84 38.57 54.84 38.57 54.84C38.57 56.62 38.57 57.61 38.57 57.81C38.57 57.81 38.57 57.81 38.57 57.81C27.89 57.81 21.95 57.81 20.76 57.81C20.76 57.81 20.76 57.81 20.76 57.81C20.76 56.03 20.76 55.04 20.76 54.84C20.76 54.84 20.76 54.84 20.76 54.84C31.45 54.84 37.39 54.84 38.57 54.84Z"
              id="c2dXatgRVP"/>
        <path d="M41.05 34.42C41.05 34.42 41.05 34.42 41.05 34.42C41.92 33.68 43.09 33.23 44.36 33.23C44.36 33.23 44.36 33.23 44.36 33.23C45.64 33.23 46.81 33.68 47.68 34.42C47.68 34.42 47.68 34.42 47.68 34.42C48.56 35.17 49.15 36.22 49.22 37.42C49.29 38.65 48.79 39.8 47.92 40.65C47.92 40.65 47.92 40.65 47.92 40.65C47.04 41.51 45.77 42.05 44.36 42.05C44.36 42.05 44.36 42.05 44.36 42.05C42.95 42.05 41.69 41.51 40.8 40.65C40.8 40.65 40.8 40.65 40.8 40.65C39.94 39.8 39.44 38.65 39.51 37.42C39.58 36.22 40.16 35.17 41.05 34.42Z"
              id="a1L5nYwTj8"/>
        <path d="M32.16 41.94C32.16 41.94 32.16 41.94 32.16 41.94C32.63 43.45 33.43 44.84 34.55 46.07C34.55 46.07 34.55 46.07 34.55 46.07C35.69 47.34 37.1 48.35 38.72 49.07C38.72 49.07 38.72 49.07 38.72 49.07C40.43 49.83 42.28 50.21 44.2 50.21C44.2 50.21 44.2 50.21 44.2 50.21C46.13 50.21 47.98 49.81 49.69 49.05C49.69 49.05 49.69 49.05 49.69 49.05C51.31 48.33 52.72 47.31 53.86 46.04C53.86 46.04 53.86 46.04 53.86 46.04C54.97 44.81 55.77 43.41 56.24 41.9C56.24 41.9 56.24 41.9 56.24 41.9C56.48 41.14 56.63 40.37 56.69 39.59C56.69 39.59 56.69 39.59 56.69 39.59C56.75 38.83 56.73 38.06 56.62 37.3C56.62 37.3 56.62 37.3 56.62 37.3C56.41 35.81 55.89 34.41 55.1 33.13C54.37 31.96 53.43 30.94 52.32 30.07C52.32 30.07 52.32 30.07 52.32 30.07L52.32 30.07L52.32 30.07L41.09 21.44C41.09 21.44 41.09 21.44 41.09 21.44C41.08 21.44 41.07 21.43 41.06 21.42C41.06 21.42 41.06 21.42 41.06 21.42C40.32 20.86 39.08 20.86 38.27 21.42C38.27 21.42 38.27 21.42 38.27 21.42C37.45 22 37.36 22.95 38.09 23.55C38.09 23.55 38.09 23.55 38.09 23.55L38.09 23.55L38.09 23.55L42.77 27.36L28.49 27.37C28.49 27.37 28.49 27.37 28.49 27.37C28.48 27.37 28.48 27.37 28.47 27.37C28.47 27.37 28.47 27.37 28.47 27.37C27.29 27.37 26.16 28.15 25.93 29.13C25.93 29.13 25.93 29.13 25.93 29.13C25.7 30.13 26.5 30.95 27.73 30.96C27.73 30.96 27.73 30.96 27.73 30.96L27.73 30.96L27.73 30.96L34.97 30.95L22.05 40.86C22.05 40.86 22.05 40.86 22.05 40.86C22.03 40.87 22.02 40.89 22 40.9C22 40.9 22 40.9 22 40.9C20.78 41.83 20.39 43.38 21.15 44.37C21.15 44.37 21.15 44.37 21.15 44.37C21.93 45.36 23.59 45.37 24.82 44.37C24.82 44.37 24.82 44.37 24.82 44.37C29.05 40.91 31.4 38.99 31.87 38.6C31.87 38.6 31.77 39.38 31.78 39.85C31.78 40.32 31.94 41.23 32.16 41.94ZM44.2 44.78C44.2 44.78 44.2 44.78 44.2 44.78C42 44.78 39.97 43.95 38.52 42.47C38.52 42.47 38.52 42.47 38.52 42.47C37.81 41.75 37.28 40.93 36.96 40.04C36.96 40.04 36.96 40.04 36.96 40.04C36.65 39.18 36.52 38.26 36.61 37.33C36.61 37.33 36.61 37.33 36.61 37.33C36.68 36.42 36.95 35.55 37.38 34.77C37.38 34.77 37.38 34.77 37.38 34.77C37.81 34 38.39 33.31 39.11 32.72C39.11 32.72 39.11 32.72 39.11 32.72C40.52 31.56 42.32 30.94 44.2 30.94C44.2 30.94 44.2 30.94 44.2 30.94C46.08 30.94 47.88 31.56 49.29 32.7C49.29 32.7 49.29 32.7 49.29 32.7C50.01 33.29 50.6 33.98 51.02 34.75C51.02 34.75 51.02 34.75 51.02 34.75C51.45 35.53 51.72 36.4 51.8 37.3C51.8 37.3 51.8 37.3 51.8 37.3C51.88 38.23 51.76 39.15 51.44 40.02C51.44 40.02 51.44 40.02 51.44 40.02C51.12 40.9 50.6 41.73 49.89 42.46C48.44 43.94 46.41 44.78 44.2 44.78Z"
              id="fRFF3gk5B"/>
    </defs>
    <g>
        <g>
            <g>
                <use xlink:href="#bz8XGGixJ" opacity="1" fill="url(#gradientcyNKNGOts)"/>
                <g>
                    <use xlink:href="#bz8XGGixJ" opacity="1" fill-opacity="0" stroke="#000000" stroke-width="1"
                         stroke-opacity="0"/>
                </g>
            </g>
            <g>
                <use xlink:href="#binCGPO59" opacity="1" fill="url(#gradientbsLA2yUge)"/>
                <g>
                    <use xlink:href="#binCGPO59" opacity="1" fill-opacity="0" stroke="#000000" stroke-width="1"
                         stroke-opacity="0"/>
                </g>
            </g>
            <g>
                <use xlink:href="#g8P1DyBc3V" opacity="1" fill="url(#gradientdEsN0qZ9W)"/>
                <g>
                    <use xlink:href="#g8P1DyBc3V" opacity="1" fill-opacity="0" stroke="#000000" stroke-width="1"
                         stroke-opacity="0"/>
                </g>
            </g>
            <g>
                <use xlink:href="#iaYuEO9Lm" opacity="1" fill="url(#gradientc23ijr5860)"/>
                <g>
                    <use xlink:href="#iaYuEO9Lm" opacity="1" fill-opacity="0" stroke="#000000" stroke-width="1"
                         stroke-opacity="0"/>
                </g>
            </g>
            <g>
                <use xlink:href="#a12lRJZVSX" opacity="1" fill="url(#gradientc2OeOJbmK)"/>
                <g>
                    <use xlink:href="#a12lRJZVSX" opacity="1" fill-opacity="0" stroke="#000000" stroke-width="1"
                         stroke-opacity="0"/>
                </g>
            </g>
            <g>
                <use xlink:href="#b2WFFjBVC" opacity="1" fill="#000000" fill-opacity="1"/>
                <g>
                    <use xlink:href="#b2WFFjBVC" opacity="1" fill-opacity="0" stroke="#000000" stroke-width="1"
                         stroke-opacity="0"/>
                </g>
            </g>
            <g>
                <use xlink:href="#c2dXatgRVP" opacity="1" fill="#ffffff" fill-opacity="1"/>
                <g>
                    <use xlink:href="#c2dXatgRVP" opacity="1" fill-opacity="0" stroke="#000000" stroke-width="1"
                         stroke-opacity="0"/>
                </g>
            </g>
            <g>
                <use xlink:href="#a1L5nYwTj8" opacity="1" fill="#ffffff" fill-opacity="1"/>
                <g>
                    <use xlink:href="#a1L5nYwTj8" opacity="1" fill-opacity="0" stroke="#000000" stroke-width="0"
                         stroke-opacity="0"/>
                </g>
            </g>
            <g>
                <use xlink:href="#fRFF3gk5B" opacity="1" fill="#ffffff" fill-opacity="1"/>
                <g>
                    <use xlink:href="#fRFF3gk5B" opacity="1" fill-opacity="0" stroke="#000000" stroke-width="0"
                         stroke-opacity="0"/>
                </g>
            </g>
        </g>
    </g>
</svg>