<svg width="80" height="80" viewBox="0 0 80 80" fill="none" xmlns="http://www.w3.org/2000/svg">
    <path d="M77.52 32.4L69.45 48.67L56.15 44.99H44.51L55.32 13.99L77.52 32.4Z" fill="url(#paint0_linear_138_50)"/>
    <path d="M28.6 48.67L28.24 56.5L17.32 61.14L2 62.8L6.63 13.64L34.54 2L51.64 13.28L32.87 25.99L28.6 48.67Z" fill="url(#paint1_linear_138_50)"/>
    <path d="M35.01 69.8L28.01 78L2 62.8L23.37 30.85L32.87 25.99L35.01 69.8Z" fill="url(#paint2_linear_138_50)"/>
    <path d="M35.25 22.78L58.52 2L61.61 22.78H35.25Z" fill="url(#paint3_linear_138_50)"/>
    <path d="M54.84 77.88L23.97 69.21L32.87 25.99L36.44 22.78L55.32 21L53.54 39.88L68.5 34.06L78 69.92L54.84 77.88Z" fill="url(#paint4_linear_138_50)"/>
    <path d="M63.75 16.25C63.75 44.75 63.75 60.58 63.75 63.75C35.25 63.75 19.42 63.75 16.25 63.75C16.25 35.25 16.25 19.42 16.25 16.25C44.75 16.25 60.58 16.25 63.75 16.25Z" fill="black"/>
    <path d="M38.57 54.84C38.57 56.62 38.57 57.61 38.57 57.81C27.89 57.81 21.95 57.81 20.76 57.81C20.76 56.03 20.76 55.04 20.76 54.84C31.45 54.84 37.39 54.84 38.57 54.84Z" fill="white"/>
    <path d="M41.0499 34.42C41.9199 33.68 43.0899 33.23 44.3599 33.23C45.6399 33.23 46.8099 33.68 47.6799 34.42C48.5599 35.17 49.1499 36.22 49.2199 37.42C49.2899 38.65 48.7899 39.8 47.9199 40.65C47.0399 41.51 45.7699 42.05 44.3599 42.05C42.9499 42.05 41.6899 41.51 40.7999 40.65C39.9399 39.8 39.4399 38.65 39.5099 37.42C39.5799 36.22 40.1599 35.17 41.0499 34.42Z" fill="white"/>
    <path d="M32.1601 41.94C32.6301 43.45 33.4301 44.84 34.5501 46.07C35.6901 47.34 37.1001 48.35 38.7201 49.07C40.4301 49.83 42.2801 50.21 44.2001 50.21C46.1301 50.21 47.9801 49.81 49.6901 49.05C51.3101 48.33 52.7201 47.31 53.8601 46.04C54.9701 44.81 55.7701 43.41 56.2401 41.9C56.4801 41.14 56.6301 40.37 56.6901 39.59C56.7501 38.83 56.7301 38.06 56.6201 37.3C56.4101 35.81 55.8901 34.41 55.1001 33.13C54.3701 31.96 53.4301 30.94 52.3201 30.07L41.0901 21.44C41.0801 21.44 41.0701 21.43 41.0601 21.42C40.3201 20.86 39.0801 20.86 38.2701 21.42C37.4501 22 37.3601 22.95 38.0901 23.55L42.7701 27.36L28.4901 27.37C28.4801 27.37 28.4801 27.37 28.4701 27.37C27.2901 27.37 26.1601 28.15 25.9301 29.13C25.7001 30.13 26.5001 30.95 27.7301 30.96L34.9701 30.95L22.0501 40.86C22.0301 40.87 22.0201 40.89 22.0001 40.9C20.7801 41.83 20.3901 43.38 21.1501 44.37C21.9301 45.36 23.5901 45.37 24.8201 44.37C29.0501 40.91 31.4001 38.99 31.8701 38.6C31.8701 38.6 31.7701 39.38 31.7801 39.85C31.7801 40.32 31.9401 41.23 32.1601 41.94ZM44.2001 44.78C42.0001 44.78 39.9701 43.95 38.5201 42.47C37.8101 41.75 37.2801 40.93 36.9601 40.04C36.6501 39.18 36.5201 38.26 36.6101 37.33C36.6801 36.42 36.9501 35.55 37.3801 34.77C37.8101 34 38.3901 33.31 39.1101 32.72C40.5201 31.56 42.3201 30.94 44.2001 30.94C46.0801 30.94 47.8801 31.56 49.2901 32.7C50.0101 33.29 50.6001 33.98 51.0201 34.75C51.4501 35.53 51.7201 36.4 51.8001 37.3C51.8801 38.23 51.7601 39.15 51.4401 40.02C51.1201 40.9 50.6001 41.73 49.8901 42.46C48.4401 43.94 46.4101 44.78 44.2001 44.78Z" fill="white"/>
    <defs>
        <linearGradient id="paint0_linear_138_50" x1="29.14" y1="31.33" x2="74.37" y2="31.33" gradientUnits="userSpaceOnUse">
            <stop stop-color="#21D789"/>
            <stop offset="1" stop-color="#07C3F2"/>
        </linearGradient>
        <linearGradient id="paint1_linear_138_50" x1="-24.65" y1="66.14" x2="68.48" y2="-2.61" gradientUnits="userSpaceOnUse">
            <stop offset="0.01" stop-color="#FCF84A"/>
            <stop offset="0.11" stop-color="#A7EB62"/>
            <stop offset="0.21" stop-color="#5FE077"/>
            <stop offset="0.27" stop-color="#32DA84"/>
            <stop offset="0.31" stop-color="#21D789"/>
            <stop offset="0.58" stop-color="#21D789"/>
            <stop offset="0.6" stop-color="#21D789"/>
            <stop offset="0.69" stop-color="#20D68C"/>
            <stop offset="0.76" stop-color="#1ED497"/>
            <stop offset="0.83" stop-color="#19D1A9"/>
            <stop offset="0.9" stop-color="#13CCC2"/>
            <stop offset="0.97" stop-color="#0BC6E1"/>
            <stop offset="1" stop-color="#07C3F2"/>
        </linearGradient>
        <linearGradient id="paint2_linear_138_50" x1="12.13" y1="86.3" x2="27.67" y2="37.56" gradientUnits="userSpaceOnUse">
            <stop stop-color="#21D789"/>
            <stop offset="0.16" stop-color="#24D788"/>
            <stop offset="0.3" stop-color="#2FD886"/>
            <stop offset="0.44" stop-color="#41DA82"/>
            <stop offset="0.56" stop-color="#5ADC7D"/>
            <stop offset="0.69" stop-color="#7AE077"/>
            <stop offset="0.81" stop-color="#A1E36E"/>
            <stop offset="0.93" stop-color="#CFE865"/>
            <stop offset="1" stop-color="#F1EB5E"/>
        </linearGradient>
        <linearGradient id="paint3_linear_138_50" x1="32.7" y1="43.92" x2="66.5" y2="-1.52" gradientUnits="userSpaceOnUse">
            <stop stop-color="#21D789"/>
            <stop offset="0.06" stop-color="#24D788"/>
            <stop offset="0.11" stop-color="#2FD886"/>
            <stop offset="0.16" stop-color="#41DA82"/>
            <stop offset="0.21" stop-color="#5ADD7D"/>
            <stop offset="0.25" stop-color="#79E077"/>
            <stop offset="0.26" stop-color="#7CE076"/>
            <stop offset="0.5" stop-color="#8CE173"/>
            <stop offset="0.92" stop-color="#B2E56B"/>
        </linearGradient>
        <linearGradient id="paint4_linear_138_50" x1="84.39" y1="49.71" x2="16.28" y2="49.08" gradientUnits="userSpaceOnUse">
            <stop offset="0.39" stop-color="#FCF84A"/>
            <stop offset="0.54" stop-color="#ECF451"/>
            <stop offset="0.83" stop-color="#C2E964"/>
            <stop offset="0.92" stop-color="#B2E56B"/>
        </linearGradient>
    </defs>
</svg>