<?xml version="1.0" encoding="utf-8"?>
<svg viewBox="148.539 102.112 221.201 169.856" xmlns="http://www.w3.org/2000/svg">
  <path fill="#3E86A0" opacity="0.8" d="M 148.539 257.163 L 148.539 102.831 C 148.539 102.436 148.863 102.112 149.257 102.112 L 204.624 102.112 C 213.604 102.606 222.144 106.144 228.826 112.134 L 246.995 130.303 L 345.874 130.303 L 345.826 168.682 L 303.569 136.89 C 303.522 136.855 303.488 136.82 303.441 136.79 C 300.189 134.291 286.892 135.597 283.143 137.802 C 279.426 139.989 270.362 145.713 275.329 154.158 L 285.017 164.009 L 235.993 164.074 L 235.907 164.074 C 230.7 164.081 225.685 174.492 224.706 178.834 C 223.685 183.232 227.227 194.901 232.659 194.901 L 249.583 194.859 L 207.443 228.555 C 207.368 228.609 207.289 228.664 207.224 228.718 C 201.845 232.837 201.109 245.698 204.497 250.012 C 207.942 254.408 213.848 255.686 214.873 256.652 L 148.539 257.163 Z"/>
  <path fill="#265787" opacity="1.0" d="M 293.202 214.983 C 293.498 209.689 296.087 205.01 300.008 201.706 C 303.848 198.453 309.002 196.466 314.662 196.466 C 320.294 196.466 325.448 198.453 329.286 201.706 C 333.208 205.01 335.787 209.689 336.095 214.983 C 336.393 220.419 334.205 225.49 330.379 229.243 C 326.457 233.053 320.909 235.462 314.662 235.462 C 308.415 235.462 302.839 233.069 298.946 229.243 C 295.106 225.49 292.92 220.447 293.23 215.011 L 293.202 214.983 Z"/>
  <path fill="#ea7600" opacity="1.0" d="M 259.583 226.191 C 259.618 228.262 260.28 232.298 261.272 235.434 C 263.358 242.103 266.902 248.266 271.807 253.675 C 276.849 259.251 283.068 263.731 290.24 266.924 C 297.776 270.258 305.957 271.968 314.448 271.968 C 322.934 271.957 331.115 270.221 338.651 266.84 C 345.825 263.62 352.044 259.136 357.087 253.535 C 362.017 248.071 365.547 241.908 367.619 235.239 C 368.672 231.876 369.336 228.46 369.602 225.042 C 369.863 221.68 369.753 218.289 369.273 214.899 C 368.336 208.317 366.053 202.123 362.551 196.522 C 359.354 191.339 355.209 186.826 350.278 183.019 L 350.29 183.009 L 300.703 144.907 C 300.656 144.872 300.621 144.837 300.574 144.807 C 297.322 142.307 291.832 142.316 288.274 144.819 C 284.66 147.354 284.238 151.546 287.46 154.176 L 287.447 154.193 L 308.152 171.03 L 245.115 171.095 L 245.029 171.095 C 239.821 171.102 234.805 174.514 233.826 178.857 C 232.805 183.256 236.347 186.926 241.781 186.926 L 241.772 186.945 L 273.71 186.884 L 216.56 230.588 C 216.485 230.641 216.406 230.697 216.341 230.751 C 210.961 234.871 209.225 241.733 212.613 246.048 C 216.059 250.445 223.373 250.473 228.807 246.071 L 259.905 220.578 C 259.905 220.578 259.528 222.551 259.565 224.597 L 259.583 226.191 Z M 339.706 237.704 C 333.292 244.233 324.3 247.959 314.606 247.959 C 304.885 247.975 295.891 244.317 289.476 237.788 C 286.337 234.596 284.04 230.954 282.612 227.058 C 281.22 223.22 280.68 219.159 281.036 215.067 C 281.377 211.061 282.567 207.224 284.485 203.778 C 286.354 200.387 288.938 197.304 292.102 194.702 C 298.351 189.629 306.278 186.854 314.571 186.854 C 322.892 186.845 330.822 189.571 337.069 194.646 C 340.235 197.232 342.812 200.303 344.688 203.694 C 346.601 207.14 347.799 210.95 348.134 214.983 C 348.489 219.075 347.946 223.136 346.555 226.974 C 345.131 230.898 342.829 234.54 339.69 237.732 L 339.706 237.704 Z"/>
</svg>