<svg width="16" height="16" viewBox="0 0 222 170" xmlns="http://www.w3.org/2000/svg">
  <path fill="#9AA7B0" opacity="0.8" d="M0 155.051V0.719002C0 0.324002 0.324002 0 0.718002 0H56.085C65.065 0.494 73.605 4.032 80.287 10.022L98.456 28.191H197.335L197.287 66.57L155.03 34.778C154.983 34.743 154.949 34.708 154.902 34.678C151.65 32.179 138.353 33.485 134.604 35.69C130.887 37.877 121.823 43.601 126.79 52.046L136.478 61.897L87.454 61.962H87.368C82.161 61.969 77.146 72.38 76.167 76.722C75.146 81.12 78.688 92.789 84.12 92.789L101.044 92.747L58.904 126.443C58.829 126.497 58.75 126.552 58.685 126.606C53.306 130.725 52.57 143.586 55.958 147.9C59.403 152.296 65.309 153.574 66.334 154.54L0 155.051Z"/>
  <path fill="#265787" opacity="1.0" d="M144.663 112.871C144.959 107.577 147.548 102.898 151.469 99.594C155.309 96.341 160.463 94.354 166.123 94.354C171.755 94.354 176.909 96.341 180.747 99.594C184.669 102.898 187.248 107.577 187.556 112.871C187.854 118.307 185.666 123.378 181.84 127.131C177.918 130.941 172.37 133.35 166.123 133.35C159.876 133.35 154.3 130.957 150.407 127.131C146.567 123.378 144.381 118.335 144.691 112.899L144.663 112.871Z"/>
  <path fill="#EA7600" opacity="1.0" d="M111.044 124.079C111.079 126.15 111.741 130.186 112.733 133.322C114.819 139.991 118.363 146.154 123.268 151.563C128.31 157.139 134.529 161.619 141.701 164.812C149.237 168.146 157.418 169.856 165.909 169.856C174.395 169.845 182.576 168.109 190.112 164.728C197.286 161.508 203.505 157.024 208.548 151.423C213.478 145.959 217.008 139.796 219.08 133.127C220.133 129.764 220.797 126.348 221.063 122.93C221.324 119.568 221.214 116.177 220.734 112.787C219.797 106.205 217.514 100.011 214.012 94.41C210.815 89.227 206.67 84.714 201.739 80.907L201.751 80.897L152.164 42.795C152.117 42.76 152.082 42.725 152.035 42.695C148.783 40.195 143.293 40.204 139.735 42.707C136.121 45.242 135.699 49.434 138.921 52.064L138.908 52.081L159.613 68.918L96.576 68.983H96.49C91.282 68.99 86.266 72.402 85.287 76.745C84.266 81.144 87.808 84.814 93.242 84.814L93.233 84.833L125.171 84.772L68.021 128.476C67.946 128.529 67.867 128.585 67.802 128.639C62.422 132.759 60.686 139.621 64.074 143.936C67.52 148.333 74.834 148.361 80.268 143.959L111.366 118.466C111.366 118.466 110.989 120.439 111.026 122.485L111.044 124.079ZM191.167 135.592C184.753 142.121 175.761 145.847 166.067 145.847C156.346 145.863 147.352 142.205 140.937 135.676C137.798 132.484 135.501 128.842 134.073 124.946C132.681 121.108 132.141 117.047 132.497 112.955C132.838 108.949 134.028 105.112 135.946 101.666C137.815 98.275 140.399 95.192 143.563 92.59C149.812 87.517 157.739 84.742 166.032 84.742C174.353 84.733 182.283 87.459 188.53 92.534C191.696 95.12 194.273 98.191 196.149 101.582C198.062 105.028 199.26 108.838 199.595 112.871C199.95 116.963 199.407 121.024 198.016 124.862C196.592 128.786 194.29 132.428 191.151 135.62L191.167 135.592Z"/>
</svg>