<svg width="16" height="13" viewBox="0 0 16 13" xmlns="http://www.w3.org/2000/svg">
  <path fill="#265787" fill-opacity="1.0" d="M10.2633 8.05233C10.2843 7.67675 10.4679 7.34479 10.7461 7.11038C11.0185 6.8796 11.3842 6.73863 11.7858 6.73863C12.1853 6.73863 12.551 6.8796 12.8233 7.11038C13.1015 7.34479 13.2845 7.67675 13.3063 8.05233C13.3275 8.438 13.1722 8.79776 12.9008 9.06402C12.6226 9.33433 12.229 9.50524 11.7858 9.50524C11.3426 9.50524 10.947 9.33546 10.6708 9.06402C10.3983 8.79776 10.2432 8.43998 10.2652 8.05432L10.2633 8.05233Z"/>
  <path fill="#EA7600" fill-opacity="1.0" d="M7.87812 8.8475C7.8806 8.99443 7.92757 9.28076 7.99795 9.50325C8.14594 9.97639 8.39737 10.4136 8.74536 10.7974C9.10307 11.193 9.54429 11.5108 10.0531 11.7373C10.5878 11.9739 11.1682 12.0952 11.7706 12.0952C12.3726 12.0944 12.953 11.9712 13.4877 11.7314C13.9966 11.5029 14.4379 11.1848 14.7956 10.7874C15.1454 10.3998 15.3958 9.96255 15.5428 9.48942C15.6175 9.25082 15.6646 9.00847 15.6835 8.76598C15.702 8.52746 15.6942 8.28688 15.6602 8.04637C15.5937 7.57941 15.4317 7.13997 15.1833 6.7426C14.9565 6.37489 14.6624 6.05471 14.3126 5.78462L14.3134 5.78391L10.7954 3.08073C10.7921 3.07824 10.7896 3.07576 10.7863 3.07363C10.5555 2.89627 10.1661 2.89691 9.91363 3.07448C9.65723 3.25433 9.62729 3.55174 9.85588 3.73832L9.85496 3.73953L11.3239 4.93405L6.85167 4.93866H6.84557C6.47609 4.93916 6.12022 5.18122 6.05077 5.48934C5.97833 5.80143 6.22962 6.0618 6.61514 6.0618L6.6145 6.06315L8.88037 6.05882L4.82581 9.15945C4.82049 9.16321 4.81489 9.16718 4.81028 9.17101C4.42859 9.46331 4.30543 9.95014 4.54579 10.2563C4.79027 10.5682 5.30917 10.5702 5.69469 10.2579L7.90096 8.44928C7.90096 8.44928 7.87422 8.58925 7.87684 8.73441L7.87812 8.8475ZM13.5625 9.6643C13.1075 10.1275 12.4695 10.3918 11.7818 10.3918C11.0921 10.393 10.454 10.1335 9.99891 9.67026C9.77621 9.4438 9.61324 9.18541 9.51193 8.90901C9.41318 8.63672 9.37487 8.3486 9.40012 8.05829C9.42432 7.77408 9.50874 7.50186 9.64482 7.25738C9.77741 7.01681 9.96074 6.79808 10.1852 6.61348C10.6286 6.25357 11.1909 6.0567 11.7793 6.0567C12.3696 6.05606 12.9322 6.24946 13.3754 6.60951C13.6001 6.79297 13.7829 7.01085 13.916 7.25143C14.0517 7.49591 14.1367 7.76621 14.1605 8.05233C14.1856 8.34265 14.1471 8.63076 14.0484 8.90305C13.9474 9.18144 13.7841 9.43982 13.5614 9.66628L13.5625 9.6643Z"/>
  <path fill="#9AA7B0" fill-opacity="0.8" d="M4.34127 11C4.21534 10.9227 4.0983 10.82 3.99522 10.6886L3.99483 10.6881C3.42689 9.96409 3.81963 9.05244 4.37853 8.61999C4.39083 8.61028 4.4021 8.60193 4.41005 8.59616L6.80749 6.76278L6.61584 6.76315C6.59535 6.76319 6.57499 6.76233 6.55479 6.76061C6.2283 6.74762 5.90227 6.62863 5.66112 6.3824C5.39479 6.11047 5.27828 5.7248 5.36839 5.33326C5.4512 4.96894 5.68748 4.69516 5.93852 4.5222C6.1935 4.34654 6.51195 4.23911 6.84463 4.23866L6.84557 4.23866L6.85168 4.23866L9.36149 4.23607L9.3584 4.23299C9.11484 4.00811 8.97402 3.68847 9.00578 3.34028C9.03872 2.97918 9.24698 2.68706 9.51165 2.50141C9.77151 2.31888 10.0769 2.24128 10.3573 2.24095C10.6319 2.24063 10.9417 2.31492 11.2017 2.51016C11.2134 2.5187 11.2226 2.52598 11.2288 2.53092L14 4.6603V2H6.98457L5.69633 0.71149C5.22162 0.285594 4.6157 0.0345799 3.97888 0H0.05128C0.0229588 0 0 0.0229588 0 0.05128V11H4.34127ZM10.7863 3.07363C10.7883 3.07491 10.79 3.07631 10.7917 3.07777C10.79 3.07632 10.7883 3.07491 10.7863 3.07363ZM6.60484 6.06174C6.6071 6.06177 6.60937 6.06179 6.61164 6.0618L6.6145 6.0618H6.61514C6.6117 6.0618 6.60826 6.06178 6.60484 6.06174Z"/>
</svg>