<svg width="192" height="192" viewBox="0 0 177 144" xmlns="http://www.w3.org/2000/svg">
    <path fill="#888888" d="M91.6575 80.2112C91.9882 74.3161 94.8702 69.1072 99.2369 65.4267C103.51 61.8085 109.249 59.594 115.55 59.594C121.819 59.594 127.558 61.8054 131.832 65.4267C136.198 69.1072 139.068 74.3161 139.411 80.2112C139.742 86.2623 137.306 91.9078 133.048 96.0874C128.681 100.329 122.505 103.012 115.55 103.012C108.594 103.012 102.387 100.348 98.0517 96.0874C93.7785 91.9078 91.3456 86.2935 91.6887 80.2424L91.6575 80.2112Z"/>
    <path fill="#888888" d="M54.2283 92.6876C54.2689 94.9958 55.005 99.4872 56.1091 102.981C58.4297 110.404 62.3786 117.266 67.837 123.286C73.4514 129.493 80.3757 134.484 88.3606 138.039C96.751 141.751 105.859 143.654 115.31 143.654C124.761 143.641 133.868 141.707 142.259 137.946C150.244 134.359 157.168 129.368 162.782 123.13C168.272 117.048 172.202 110.186 174.51 102.762C175.68 99.0194 176.419 95.2141 176.715 91.4088C177.005 87.6659 176.884 83.8918 176.35 80.1177C175.309 72.7878 172.763 65.8946 168.865 59.6564C165.309 53.886 160.693 48.8643 155.203 44.6223L155.215 44.613L100.007 2.19318C99.9575 2.15575 99.9169 2.11517 99.8639 2.08086C96.2457 -0.701381 90.1323 -0.692009 86.171 2.09647C82.1474 4.91613 81.6795 9.5823 85.2665 12.5143L85.2509 12.5299L108.301 31.2757L38.1213 31.3505H38.0277C32.2262 31.3567 26.643 35.1559 25.5513 39.9905C24.416 44.8875 28.3585 48.9734 34.4096 48.9734L34.4002 48.9953L69.9579 48.9267L6.32833 97.5846C6.24723 97.6439 6.15989 97.7062 6.08503 97.7655C0.0963584 102.351 -1.83749 109.992 1.93662 114.796C5.77311 119.693 13.914 119.724 19.965 114.824L54.587 86.4401C54.587 86.4401 54.0817 90.2766 54.1223 92.5535L54.2283 92.6876ZM143.435 105.507C136.292 112.775 126.28 116.923 115.487 116.923C104.664 116.942 94.6519 112.868 87.5091 105.601C84.0157 102.045 81.4581 97.9901 79.8673 93.6545C78.3171 89.3814 77.7152 84.8587 78.1144 80.3048C78.4918 75.8445 79.8205 71.5713 81.9509 67.7348C84.0344 63.9607 86.9103 60.5297 90.4348 57.629C97.3904 51.9834 106.218 48.8954 115.45 48.8954C124.714 48.883 133.541 51.9178 140.496 57.5665C144.021 60.4486 146.891 63.8672 148.98 67.6413C151.111 71.4778 152.443 75.7197 152.817 80.2112C153.21 84.7651 152.608 89.2878 151.058 93.561C149.473 97.9277 146.909 101.983 143.416 105.538L143.435 105.507Z"/>
</svg>